<svg xmlns="http://www.w3.org/2000/svg" width="15" height="15" viewBox="0 0 15 15">
  <path id="Dribbble" d="M7.5,15A7.5,7.5,0,1,1,15,7.5,7.509,7.509,0,0,1,7.5,15ZM8.636,8.549l-.043.014a8.748,8.748,0,0,0-5.026,4A6.4,6.4,0,0,0,10,13.407,26.434,26.434,0,0,0,8.636,8.549Zm2.533-.4h0a8.448,8.448,0,0,0-1.335.1,27.461,27.461,0,0,1,1.244,4.567,6.426,6.426,0,0,0,2.746-4.293,9.249,9.249,0,0,0-2.655-.377ZM1.1,7.314c0,.065,0,.13,0,.2A6.393,6.393,0,0,0,2.74,11.793,10.268,10.268,0,0,1,7.948,7.566c.079-.026.163-.052.252-.077-.155-.349-.329-.716-.519-1.087A23.772,23.772,0,0,1,1.3,7.316Zm9.824-.159a15.6,15.6,0,0,1,2.985.294,6.432,6.432,0,0,0-1.447-3.992A8.618,8.618,0,0,1,8.882,5.984c.164.339.3.643.425.928.047.111.093.221.138.331A11.9,11.9,0,0,1,10.921,7.156ZM4.776,1.712A6.446,6.446,0,0,0,1.229,6.2h.093a24.046,24.046,0,0,0,5.829-.782A40.991,40.991,0,0,0,4.776,1.712ZM7.5,1.1A6.4,6.4,0,0,0,6,1.281,34.573,34.573,0,0,1,8.389,5.032a7.212,7.212,0,0,0,3.358-2.314A6.4,6.4,0,0,0,7.5,1.1Z" transform="translate(0 0)" fill="#4f5362"/>
</svg>
