<svg xmlns="http://www.w3.org/2000/svg" width="23.999" height="14.998" viewBox="0 0 23.999 14.998">
  <path id="Google_" data-name="Google +" d="M7.614,15A7.566,7.566,0,0,1,0,7.5,7.566,7.566,0,0,1,7.614,0a7.662,7.662,0,0,1,5.137,1.965L10.507,4.129A4.518,4.518,0,0,0,7.614,3.085,4.453,4.453,0,0,0,3.132,7.5a4.454,4.454,0,0,0,4.482,4.415,4.507,4.507,0,0,0,4.191-2.849H7.518V5.933h7.545A7.439,7.439,0,0,1,15.228,7.5,7.566,7.566,0,0,1,7.614,15Zm13.735-4.318H19.421V8.068h-2.65V6.17h2.65V3.559h1.928V6.17H24v1.9h-2.65v2.611Z" transform="translate(0 0)" fill="#4f5362"/>
</svg>
