<svg xmlns="http://www.w3.org/2000/svg" width="16.998" height="13.999" viewBox="0 0 16.998 13.999">
  <path id="Twitter" d="M17,1.657a6.922,6.922,0,0,1-2,.557A3.537,3.537,0,0,0,16.528.259a6.913,6.913,0,0,1-2.215.857A3.46,3.46,0,0,0,11.768,0,3.511,3.511,0,0,0,8.28,3.534a3.562,3.562,0,0,0,.091.806A9.854,9.854,0,0,1,1.184.647,3.57,3.57,0,0,0,2.263,5.365,3.423,3.423,0,0,1,.684,4.923v.045a3.524,3.524,0,0,0,2.8,3.465,3.438,3.438,0,0,1-.919.124,3.386,3.386,0,0,1-.656-.064,3.5,3.5,0,0,0,3.258,2.455A6.946,6.946,0,0,1,.832,12.46,6.936,6.936,0,0,1,0,12.411,9.773,9.773,0,0,0,5.346,14,9.926,9.926,0,0,0,15.268,3.944c0-.154,0-.305-.01-.457A7.142,7.142,0,0,0,17,1.658Z" fill="#fff"/>
</svg>
